<svg data-v-423bf9ae="" xmlns="http://www.w3.org/2000/svg" viewBox="0 0 383 91" class="iconLeft"><!----><!----><!----><g data-v-423bf9ae="" id="38d39c48-af0c-4911-80da-a062e55a787b" fill="white" transform="matrix(5.5658623541953265,0,0,5.5658623541953265,85.42145239257556,-6.76252109053263)"><path d="M3.78 7.50C1.64 7.50 0.56 8.96 0.56 11.10C0.56 13.24 1.62 14.69 3.77 14.69C5.22 14.69 6.13 13.93 6.13 13.93L5.74 13.27C5.74 13.27 4.87 13.78 3.78 13.78C2.38 13.78 1.88 12.50 1.88 11.10C1.88 9.70 2.38 8.30 3.78 8.30C4.19 8.30 4.52 8.39 4.93 8.72C4.98 8.92 5.03 9.10 5.03 9.20L5.03 9.70L5.84 9.74L5.98 7.99C5.14 7.71 4.61 7.50 3.78 7.50ZM11.61 14.55C12.73 14.55 13.41 14.62 13.41 14.62L13.51 13.79L12.54 13.69C12.54 13.69 12.40 12.91 12.40 12.21L12.40 10.47C12.40 8.33 11.76 7.50 10.09 7.50C9.25 7.50 8.40 7.62 7.56 7.84L7.71 9.74L8.53 9.70L8.53 9.13L8.62 8.54C8.97 8.37 9.49 8.26 9.95 8.26C10.84 8.26 11.27 8.89 11.27 10.19L11.27 10.65L9.03 11.03C7.77 11.24 7.15 11.89 7.15 12.89C7.15 13.99 7.94 14.69 9.18 14.69C10.09 14.69 11.05 14.15 11.41 13.44ZM11.27 11.37L11.27 12.21C11.13 13.12 10.35 13.79 9.41 13.79C8.75 13.79 8.39 13.38 8.39 12.68C8.39 12.19 8.71 11.84 9.27 11.75ZM16.38 7.88L16.11 7.63L15.61 7.63C15.33 7.63 14.32 7.57 14.32 7.57L14.25 8.32L15.32 8.54C15.32 8.54 15.46 9.32 15.46 9.60L15.46 12.63C15.46 12.91 15.32 13.69 15.32 13.69L14.25 13.92L14.32 14.62C14.32 14.62 15.60 14.55 15.88 14.55C17.00 14.55 17.96 14.62 17.96 14.62L18.06 13.79L16.69 13.69C16.69 13.69 16.59 12.91 16.59 12.21L16.59 10.57C16.65 9.25 17.18 8.48 18.47 8.47L18.52 8.47C18.62 8.76 18.72 9.09 18.72 9.17L18.72 9.91L19.53 9.95L19.67 7.64C19.67 7.64 19.24 7.50 18.72 7.50C17.71 7.50 17.01 7.91 16.46 8.81ZM27.16 13.79L26.19 13.69C26.19 13.69 26.05 12.91 26.05 12.21L26.05 6.36C26.05 5.66 26.15 4.21 26.15 4.21L25.89 3.96L25.07 3.96C24.79 3.96 23.62 3.91 23.62 3.91L23.55 4.65L24.78 4.87C24.78 4.87 24.92 5.66 24.92 5.94L24.92 7.84C24.18 7.57 23.76 7.50 23.17 7.50C21.35 7.50 20.23 8.88 20.23 11.09C20.23 13.33 21.29 14.69 23.04 14.69C23.79 14.69 24.78 14.07 25.06 13.43L25.26 14.55C26.38 14.55 27.06 14.62 27.06 14.62ZM24.92 11.65C24.92 12.99 24.26 13.79 23.14 13.79C22.13 13.79 21.52 12.77 21.52 11.10C21.52 9.37 22.18 8.36 23.31 8.36C23.90 8.36 24.39 8.51 24.92 8.86ZM28.29 7.85L28.22 9.80L29.04 9.86L29.09 9.31C29.11 9.16 29.34 8.60 29.43 8.44C29.74 8.40 30.09 8.36 30.17 8.36L31.88 8.36C31.65 8.79 31.30 9.42 31.18 9.62L29.44 12.19C29.23 12.50 28.11 13.73 28.11 13.73L28.21 14.55L31.61 14.55C31.89 14.55 33.15 14.59 33.15 14.59L33.40 14.32L33.53 12.54L32.72 12.46C32.68 12.73 32.65 12.98 32.63 13.02C32.54 13.31 32.42 13.54 32.33 13.73C31.99 13.78 31.57 13.82 31.50 13.82L29.75 13.82C29.99 13.37 30.32 12.75 30.45 12.56L32.16 9.97L33.36 8.44L33.26 7.63L29.88 7.63C29.60 7.63 28.55 7.59 28.55 7.59ZM38.01 13.79L36.92 13.69C36.92 13.69 36.82 12.91 36.82 12.21L36.82 10.02C36.82 9.32 36.92 7.88 36.92 7.88L36.65 7.63L35.84 7.63C35.56 7.63 34.55 7.57 34.55 7.57L34.48 8.32L35.55 8.54C35.55 8.54 35.69 9.32 35.69 9.60L35.69 12.63C35.69 12.91 35.55 13.69 35.55 13.69L34.48 13.92L34.55 14.62C34.55 14.62 35.83 14.55 36.11 14.55C37.23 14.55 37.91 14.62 37.91 14.62ZM36.26 4.47C35.73 4.47 35.43 4.84 35.43 5.38C35.43 5.91 35.73 6.27 36.26 6.27C36.79 6.27 37.09 5.91 37.09 5.38C37.09 4.80 36.78 4.47 36.26 4.47ZM38.47 4.65L39.54 4.87C39.54 4.87 39.68 5.66 39.68 5.94L39.68 12.63C39.68 12.91 39.56 13.57 39.54 13.69L38.46 13.92L38.53 14.62C38.53 14.62 39.80 14.55 40.08 14.55C41.20 14.55 41.89 14.62 41.89 14.62L41.99 13.79L40.89 13.69C40.88 13.58 40.81 12.82 40.81 12.21L40.81 6.36C40.81 5.70 40.87 4.65 40.91 4.21L40.64 3.96L39.83 3.96C39.55 3.96 38.54 3.91 38.54 3.91ZM42.57 4.65L43.64 4.87C43.64 4.87 43.78 5.66 43.78 5.94L43.78 12.63C43.78 12.91 43.67 13.57 43.64 13.69L42.56 13.92L42.63 14.62C42.63 14.62 43.90 14.55 44.18 14.55C45.30 14.55 45.99 14.62 45.99 14.62L46.09 13.79L45.00 13.69C44.98 13.58 44.91 12.82 44.91 12.21L44.91 6.36C44.91 5.70 44.97 4.65 45.01 4.21L44.74 3.96L43.93 3.96C43.65 3.96 42.64 3.91 42.64 3.91ZM51.48 14.55C52.60 14.55 53.28 14.62 53.28 14.62L53.38 13.79L52.42 13.69C52.42 13.69 52.28 12.91 52.28 12.21L52.28 10.47C52.28 8.33 51.63 7.50 49.97 7.50C49.13 7.50 48.27 7.62 47.43 7.84L47.59 9.74L48.40 9.70L48.40 9.13L48.50 8.54C48.85 8.37 49.36 8.26 49.83 8.26C50.71 8.26 51.14 8.89 51.14 10.19L51.14 10.65L48.90 11.03C47.64 11.24 47.03 11.89 47.03 12.89C47.03 13.99 47.81 14.69 49.06 14.69C49.97 14.69 50.92 14.15 51.28 13.44ZM51.14 11.37L51.14 12.21C51.00 13.12 50.22 13.79 49.28 13.79C48.62 13.79 48.26 13.38 48.26 12.68C48.26 12.19 48.58 11.84 49.14 11.75Z"></path></g><!----><g data-v-423bf9ae="" id="fae2758c-4eb0-4394-8661-c155cce08d4f" transform="matrix(1.0737403702032606,0,0,1.0737403702032606,-18.602687100823175,-8.596549831118963)" stroke="none" fill="white"><path d="M75.831 81.262c-.461 4.555-4.121 7.827-8.179 7.309l-34.53-4.418c-4.055-.521-6.968-4.632-6.507-9.187l6.035-59.515c.464-4.555 4.123-7.826 8.182-7.307l34.529 4.417c4.057.52 6.969 4.632 6.506 9.187l-6.036 59.514z"></path><path d="M28.725 87.08c-4.055-.519-6.969-4.632-6.508-9.187l6.036-59.514a8.972 8.972 0 0 1 .829-2.969h-3.607c-4.083 0-7.391 3.716-7.391 8.301v59.896c0 4.586 3.308 8.302 7.391 8.302h34.754c.866 0 1.693-.177 2.467-.484L28.725 87.08z"></path></g><!----></svg>